<svg width="17px" height="20px">
  <path fill-rule="evenodd"  fill="rgb(0, 0, 0)"
  d="M3.882,3.745 C3.581,3.745 3.334,3.497 3.334,3.197 C3.334,2.896 3.577,2.649 3.882,2.649 L14.168,2.649 C14.469,2.649 14.716,2.896 14.716,3.197 C14.716,3.497 14.473,3.745 14.168,3.745 L3.882,3.745 ZM16.437,5.747 L16.437,19.452 C16.437,19.753 16.195,20.000 15.890,20.000 L3.709,20.000 C1.975,20.000 0.562,18.587 0.562,16.853 L0.562,3.147 C0.562,1.413 1.975,0.000 3.709,0.000 L15.890,0.000 C16.190,0.000 16.437,0.243 16.437,0.548 C16.437,0.849 16.195,1.096 15.890,1.096 L3.709,1.096 C2.576,1.096 1.658,2.019 1.658,3.147 C1.658,4.280 2.580,5.199 3.709,5.199 L15.886,5.199 C16.190,5.199 16.433,5.446 16.437,5.747 ZM15.338,6.299 L3.709,6.299 C2.926,6.299 2.210,6.010 1.658,5.536 L1.658,16.853 C1.658,17.986 2.580,18.904 3.709,18.904 L15.338,18.904 L15.338,6.299 ZM7.971,8.803 C7.975,8.787 7.983,8.770 7.991,8.754 C7.996,8.746 8.000,8.738 8.004,8.729 C8.008,8.721 8.012,8.713 8.016,8.705 C8.020,8.696 8.028,8.688 8.033,8.680 C8.037,8.676 8.041,8.667 8.045,8.663 C8.053,8.655 8.057,8.647 8.066,8.638 C8.074,8.634 8.078,8.626 8.082,8.622 C8.090,8.614 8.094,8.610 8.103,8.601 C8.111,8.593 8.115,8.589 8.123,8.581 C8.127,8.572 8.136,8.568 8.140,8.564 C8.148,8.556 8.156,8.552 8.164,8.544 C8.169,8.540 8.177,8.535 8.181,8.531 C8.193,8.527 8.201,8.519 8.210,8.515 C8.218,8.511 8.226,8.507 8.234,8.503 C8.243,8.498 8.251,8.494 8.259,8.490 C8.276,8.482 8.292,8.474 8.309,8.470 L8.313,8.470 C8.325,8.466 8.342,8.461 8.358,8.457 C8.366,8.457 8.370,8.453 8.378,8.453 C8.391,8.449 8.399,8.445 8.411,8.445 C8.420,8.441 8.428,8.441 8.436,8.441 C8.444,8.437 8.457,8.437 8.465,8.437 C8.477,8.437 8.486,8.437 8.494,8.437 C8.502,8.437 8.510,8.437 8.519,8.437 C8.527,8.437 8.539,8.441 8.547,8.441 C8.556,8.445 8.564,8.445 8.572,8.445 C8.584,8.449 8.593,8.449 8.605,8.453 C8.613,8.453 8.617,8.457 8.626,8.457 C8.642,8.461 8.659,8.466 8.675,8.470 L8.679,8.470 C8.696,8.474 8.712,8.482 8.729,8.490 C8.737,8.494 8.745,8.498 8.753,8.503 C8.761,8.507 8.770,8.511 8.778,8.515 C8.786,8.519 8.794,8.527 8.803,8.531 C8.807,8.535 8.815,8.540 8.819,8.544 C8.827,8.552 8.836,8.556 8.844,8.564 C8.848,8.572 8.856,8.577 8.860,8.581 C8.869,8.589 8.873,8.593 8.881,8.601 C8.889,8.610 8.897,8.614 8.902,8.622 C8.910,8.626 8.914,8.634 8.918,8.638 C8.926,8.647 8.934,8.655 8.939,8.663 C8.943,8.667 8.947,8.676 8.951,8.680 C8.955,8.692 8.963,8.700 8.967,8.709 C8.972,8.717 8.976,8.725 8.980,8.733 C8.984,8.742 8.988,8.750 8.992,8.758 C9.000,8.775 9.009,8.791 9.013,8.808 L11.508,15.806 C11.611,16.091 11.463,16.404 11.179,16.507 C11.117,16.527 11.055,16.540 10.994,16.540 C10.771,16.540 10.557,16.400 10.479,16.177 L9.812,14.307 C9.791,14.311 9.766,14.311 9.746,14.311 L7.176,14.311 L6.509,16.177 C6.431,16.400 6.221,16.540 5.994,16.540 C5.932,16.540 5.871,16.527 5.809,16.507 C5.525,16.404 5.376,16.091 5.467,15.802 L7.971,8.803 ZM9.425,13.215 L8.498,10.620 L7.567,13.215 L9.425,13.215 Z"/>
</svg>
