<svg width="40px" height="40px">
  <path fill-rule="evenodd"  fill="rgb(204, 204, 204)"
   d="M39.686,6.746 C39.686,3.277 36.554,0.144 33.084,0.144 L6.679,0.144 C3.209,0.144 0.077,3.277 0.077,6.746 L0.077,33.150 C0.077,36.619 3.209,39.752 6.679,39.752 L19.881,39.752 L19.881,24.789 L15.040,24.789 L15.040,18.188 L19.881,18.188 L19.881,15.616 C19.881,11.180 23.212,7.185 27.308,7.185 L32.644,7.185 L32.644,13.787 L27.308,13.787 C26.724,13.787 26.043,14.496 26.043,15.558 L26.043,18.188 L32.644,18.188 L32.644,24.789 L26.043,24.789 L26.043,39.752 L33.084,39.752 C36.554,39.752 39.686,36.619 39.686,33.150 L39.686,6.746 Z"/>
</svg>
