<svg 
 xmlns="http://www.w3.org/2000/svg"
 xmlns:xlink="http://www.w3.org/1999/xlink"
 width="24px" height="21px">
<path fill-rule="evenodd"  fill="rgb(0, 0, 0)"
 d="M19.900,3.592 L14.385,3.592 C13.045,3.592 11.952,2.503 11.952,1.157 C11.952,0.795 11.661,0.504 11.299,0.504 L4.100,0.504 C2.039,0.504 0.360,2.184 0.360,4.245 L0.360,16.755 C0.360,18.817 2.039,20.496 4.100,20.496 L19.900,20.496 C21.961,20.496 23.640,18.817 23.640,16.755 L23.640,7.328 C23.640,5.266 21.961,3.592 19.900,3.592 ZM22.334,16.750 C22.334,18.091 21.245,19.184 19.900,19.184 L4.100,19.184 C2.760,19.184 1.666,18.096 1.666,16.750 L1.666,4.245 C1.666,2.904 2.755,1.811 4.100,1.811 L10.703,1.811 C11.013,3.563 12.547,4.898 14.385,4.898 L19.900,4.898 C21.240,4.898 22.334,5.987 22.334,7.332 L22.334,16.750 L22.334,16.750 Z"/>
</svg>