<svg width="41px" height="41px">
  <path fill-rule="evenodd"  fill="rgb(204, 204, 204)"
  d="M29.598,40.357 L11.850,40.357 C5.823,40.357 0.919,35.454 0.919,29.426 L0.919,11.678 C0.919,5.651 5.823,0.746 11.850,0.746 L29.598,0.746 C35.626,0.746 40.530,5.651 40.530,11.678 L40.530,29.426 C40.530,35.453 35.626,40.357 29.598,40.357 ZM37.015,29.426 L37.015,11.678 C37.015,7.588 33.688,4.261 29.598,4.261 L11.850,4.261 C7.761,4.261 4.434,7.588 4.434,11.678 L4.434,29.426 C4.434,33.516 7.761,36.843 11.850,36.843 L29.599,36.843 C33.688,36.843 37.016,33.516 37.016,29.426 L37.015,29.426 ZM31.359,12.520 C30.682,12.520 30.017,12.244 29.539,11.766 C29.058,11.286 28.782,10.620 28.782,9.943 C28.782,9.264 29.058,8.598 29.539,8.120 C30.017,7.640 30.682,7.366 31.359,7.366 C32.039,7.366 32.704,7.640 33.182,8.120 C33.662,8.598 33.936,9.264 33.936,9.943 C33.936,10.620 33.662,11.286 33.182,11.766 C32.702,12.244 32.039,12.520 31.359,12.520 ZM20.724,30.759 C15.096,30.759 10.518,26.180 10.518,20.552 C10.518,14.924 15.096,10.346 20.724,10.346 C26.352,10.346 30.931,14.924 30.931,20.552 C30.931,26.180 26.352,30.759 20.724,30.759 ZM20.724,13.860 C17.034,13.860 14.032,16.862 14.032,20.552 C14.032,24.242 17.034,27.244 20.724,27.244 C24.414,27.244 27.417,24.242 27.417,20.552 C27.417,16.862 24.415,13.860 20.724,13.860 Z"/>
</svg>
