<svg width="21px" height="20px">
  <path fill-rule="evenodd"  fill="rgb(51, 51, 51)"
  d="M19.839,18.980 L14.978,14.120 C16.282,12.621 17.071,10.665 17.071,8.528 C17.071,3.822 13.243,-0.000 8.542,-0.000 C3.836,-0.000 0.012,3.827 0.012,8.528 C0.012,13.229 3.840,17.056 8.542,17.056 C10.680,17.056 12.636,16.266 14.135,14.963 L18.996,19.823 C19.111,19.938 19.267,20.000 19.418,20.000 C19.568,20.000 19.724,19.942 19.839,19.823 C20.070,19.592 20.070,19.211 19.839,18.980 ZM1.205,8.528 C1.205,4.483 4.496,1.197 8.537,1.197 C12.582,1.197 15.869,4.488 15.869,8.528 C15.869,12.568 12.582,15.863 8.537,15.863 C4.496,15.863 1.205,12.572 1.205,8.528 Z"/>
</svg>
