<svg width="21px" height="20px">
  <path fill-rule="evenodd"  fill="rgb(0, 0, 0)"
  d="M20.959,7.558 C20.890,7.348 20.709,7.197 20.490,7.163 L13.946,6.234 L11.001,0.324 C10.902,0.126 10.700,0.001 10.480,0.001 L10.480,0.001 C10.261,0.001 10.058,0.126 9.959,0.328 L7.053,6.256 L0.510,7.227 C0.290,7.262 0.109,7.412 0.040,7.623 C-0.029,7.834 0.032,8.066 0.191,8.216 L4.940,12.811 L3.842,19.319 C3.803,19.539 3.893,19.758 4.074,19.887 C4.173,19.960 4.294,19.999 4.414,19.999 C4.509,19.999 4.599,19.977 4.686,19.930 L10.528,16.839 L16.387,19.895 C16.473,19.938 16.563,19.960 16.654,19.960 L16.654,19.960 C16.972,19.960 17.235,19.698 17.235,19.379 C17.235,19.332 17.231,19.289 17.218,19.246 L16.085,12.777 L20.804,8.156 C20.972,8.001 21.028,7.769 20.959,7.558 ZM15.061,12.162 C14.923,12.295 14.863,12.489 14.897,12.678 L15.883,18.322 L10.795,15.670 C10.627,15.580 10.424,15.584 10.252,15.670 L5.181,18.352 L6.132,12.700 C6.162,12.510 6.102,12.321 5.964,12.188 L1.848,8.199 L7.527,7.356 C7.716,7.326 7.880,7.210 7.962,7.038 L10.485,1.893 L13.042,7.025 C13.128,7.197 13.291,7.314 13.481,7.343 L19.164,8.152 L15.061,12.162 Z"/>
</svg>
