<svg width="40px" height="41px">
  <path fill-rule="evenodd"  fill="rgb(204, 204, 204)"
  d="M32.549,0.748 L7.794,0.748 C3.691,0.748 0.367,4.072 0.367,8.174 L0.367,32.930 C0.367,37.032 3.691,40.356 7.794,40.356 L32.549,40.356 C36.652,40.356 39.976,37.032 39.976,32.930 L39.976,8.174 C39.976,4.072 36.652,0.748 32.549,0.748 ZM30.025,16.106 L30.040,16.737 C30.040,23.182 25.135,30.609 16.166,30.609 C13.413,30.609 10.851,29.802 8.692,28.419 C9.074,28.462 9.462,28.489 9.856,28.489 C12.141,28.489 14.243,27.708 15.911,26.402 C13.777,26.364 11.977,24.952 11.356,23.015 C11.656,23.071 11.958,23.100 12.275,23.100 C12.721,23.100 13.151,23.042 13.560,22.931 C11.329,22.481 9.648,20.512 9.648,18.150 L9.648,18.089 C10.307,18.455 11.056,18.674 11.856,18.700 C10.549,17.826 9.688,16.334 9.688,14.642 C9.688,13.749 9.927,12.913 10.347,12.192 C12.750,15.143 16.345,17.084 20.396,17.287 C20.313,16.930 20.271,16.556 20.271,16.175 C20.271,13.484 22.454,11.301 25.147,11.301 C26.549,11.301 27.816,11.892 28.708,12.840 C29.818,12.620 30.862,12.214 31.805,11.658 C31.440,12.797 30.668,13.751 29.660,14.356 C30.644,14.240 31.587,13.974 32.460,13.588 C31.807,14.564 30.978,15.423 30.025,16.106 Z"/>
</svg>
