<svg
 width="51.5px" height="51.5px">
  <path fill-rule="evenodd"  stroke="rgb(0, 0, 0)" stroke-width="1px" stroke-linecap="butt" stroke-linejoin="miter" fill="none"
  d="M25.500,0.500 C39.307,0.500 50.500,11.693 50.500,25.500 C50.500,39.307 39.307,50.500 25.500,50.500 C11.693,50.500 0.500,39.307 0.500,25.500 C0.500,11.693 11.693,0.500 25.500,0.500 Z"/>
  <path fill-rule="evenodd"  fill="rgb(51, 51, 51)"
  d="M38.402,37.137 C38.340,37.298 38.223,37.435 38.080,37.528 C37.895,37.646 33.449,40.497 26.011,40.497 C18.572,40.497 14.126,37.652 13.941,37.528 C13.793,37.435 13.681,37.298 13.619,37.137 C13.292,36.305 13.298,34.646 13.304,34.323 C13.304,34.317 13.304,34.311 13.304,34.304 C13.310,34.255 13.310,34.205 13.310,34.149 C13.347,32.926 13.428,30.050 16.111,29.124 C16.130,29.118 16.148,29.112 16.173,29.106 C18.974,28.391 21.280,26.776 21.305,26.758 C21.682,26.491 22.202,26.584 22.468,26.963 C22.734,27.342 22.641,27.864 22.264,28.130 C22.159,28.199 19.698,29.926 16.618,30.721 C15.178,31.236 15.017,32.783 14.974,34.199 C14.974,34.255 14.967,34.304 14.967,34.354 C14.955,34.913 14.998,35.777 15.097,36.274 C16.105,36.845 20.056,38.826 26.004,38.826 C31.978,38.826 35.904,36.851 36.906,36.280 C37.005,35.783 37.042,34.920 37.036,34.360 C37.029,34.311 37.029,34.261 37.029,34.205 C36.986,32.789 36.825,31.242 35.385,30.727 C32.305,29.932 29.844,28.211 29.739,28.137 C29.362,27.870 29.269,27.348 29.535,26.969 C29.801,26.590 30.320,26.497 30.698,26.764 C30.722,26.783 33.041,28.397 35.830,29.112 C35.848,29.118 35.873,29.124 35.892,29.131 C38.575,30.050 38.656,32.926 38.693,34.156 C38.693,34.211 38.699,34.261 38.699,34.311 C38.699,34.317 38.699,34.323 38.699,34.329 C38.705,34.652 38.711,36.311 38.402,37.137 ZM26.091,26.665 C26.073,26.665 26.048,26.665 26.029,26.665 C26.017,26.665 26.004,26.665 25.992,26.665 C25.955,26.665 25.924,26.665 25.893,26.665 C24.082,26.634 22.616,25.994 21.540,24.770 C19.160,22.074 19.555,17.453 19.599,17.012 C19.753,13.677 21.336,12.093 22.635,11.354 C23.927,10.615 25.275,10.503 25.961,10.503 L25.998,10.503 C26.004,10.503 26.017,10.503 26.023,10.503 L26.066,10.503 C27.315,10.528 28.435,10.826 29.393,11.379 C30.679,12.118 32.237,13.702 32.392,17.012 C32.435,17.453 32.831,22.074 30.450,24.770 C29.368,25.994 27.903,26.634 26.091,26.665 ZM30.735,17.167 C30.729,17.155 30.729,17.136 30.729,17.118 C30.537,12.906 27.699,12.223 26.029,12.186 C26.011,12.186 25.992,12.186 25.980,12.186 L25.955,12.186 C24.607,12.186 21.460,12.664 21.256,17.118 C21.256,17.130 21.250,17.149 21.250,17.167 C21.243,17.205 20.823,21.447 22.783,23.658 C23.556,24.540 24.601,24.975 25.961,24.988 C25.974,24.988 25.980,24.988 25.992,24.988 C26.004,24.988 26.011,24.988 26.023,24.988 C27.390,24.975 28.428,24.540 29.207,23.658 C31.174,21.435 30.741,17.211 30.735,17.167 Z"/>
</svg>
