<svg width="41px" height="28px">
  <path fill-rule="evenodd"  fill="rgb(204, 204, 204)"
  d="M38.740,2.979 C37.665,1.071 36.499,0.720 34.125,0.587 C31.754,0.426 25.790,0.360 20.623,0.360 C15.447,0.360 9.481,0.426 7.112,0.584 C4.743,0.720 3.574,1.069 2.490,2.979 C1.383,4.883 0.814,8.164 0.814,13.941 C0.814,13.945 0.814,13.948 0.814,13.948 C0.814,13.953 0.814,13.956 0.814,13.956 L0.814,13.960 C0.814,19.712 1.383,23.018 2.490,24.903 C3.574,26.810 4.740,27.156 7.109,27.317 C9.481,27.455 15.447,27.536 20.623,27.536 C25.790,27.536 31.754,27.455 34.128,27.319 C36.502,27.158 37.668,26.812 38.742,24.905 C39.859,23.020 40.423,19.715 40.423,13.963 C40.423,13.963 40.423,13.956 40.423,13.951 C40.423,13.951 40.423,13.945 40.423,13.943 C40.423,8.164 39.859,4.883 38.740,2.979 ZM15.667,21.360 L15.667,6.536 L28.045,13.948 L15.667,21.360 Z"/>
</svg>
